<?xml version="1.0" encoding="utf-8"?>
<!DOCTYPE svg PUBLIC "-//W3C//DTD SVG 1.1//EN" "http://www.w3.org/Graphics/SVG/1.1/DTD/svg11.dtd">
<svg version="1.1" baseProfile="full"
 xmlns="http://www.w3.org/2000/svg"
 xmlns:xlink="http://www.w3.org/1999/xlink"
 xmlns:ev="http://www.w3.org/2001/xml-events" >
<path fill-rule="evenodd"  stroke="rgb( 0, 0, 0 )" stroke-width="22.917px" stroke-linecap="butt" stroke-linejoin="miter" fill="rgb( 0, 0, 0 )"
 d="M65.075,65.034 C65.075,65.034 44.144,50.384 44.144,50.384 C44.144,50.384 17.989,60.666 17.989,60.666 C17.989,60.666 18.000,64.485 18.000,64.485 C18.000,64.485 8.000,64.515 8.000,64.515 C8.000,64.515 7.883,25.005 7.883,25.005 C7.883,25.005 -6.857,14.688 -6.857,14.688 C-6.857,14.688 -0.538,5.947 -0.538,5.947 C-0.538,5.947 71.394,56.293 71.394,56.293 C71.394,56.293 65.075,65.034 65.075,65.034 ZM17.904,32.019 C17.904,32.019 17.957,49.896 17.957,49.896 C17.957,49.896 34.279,43.479 34.279,43.479 C34.279,43.479 17.904,32.019 17.904,32.019 Z"/>
</svg>