<svg width="1383" height="739" xmlns="http://www.w3.org/2000/svg"><g><path d="M-40,-111L-171,122L132,126Z" fill="#f6fbff" stroke="#f6fbff" fill-opacity="1" stroke-opacity="1"/><path d="M-40,-111L132,126L85,-88Z" fill="#f1f6fd" stroke="#f1f6fd" fill-opacity="1" stroke-opacity="1"/><path d="M-40,-111L85,-88L548,-127Z" fill="#e3edf7" stroke="#e3edf7" fill-opacity="1" stroke-opacity="1"/><path d="M-40,-111L548,-127L923,-146Z" fill="#c4dfee" stroke="#c4dfee" fill-opacity="1" stroke-opacity="1"/><path d="M-40,-111L923,-146L1134,-154Z" fill="#add1e8" stroke="#add1e8" fill-opacity="1" stroke-opacity="1"/><path d="M85,-88L132,126L230,-47Z" fill="#e8f0f9" stroke="#e8f0f9" fill-opacity="1" stroke-opacity="1"/><path d="M85,-88L230,-47L548,-127Z" fill="#dae9f4" stroke="#dae9f4" fill-opacity="1" stroke-opacity="1"/><path d="M230,-47L132,126L288,103Z" fill="#dbecf7" stroke="#dbecf7" fill-opacity="1" stroke-opacity="1"/><path d="M230,-47L288,103L548,-127Z" fill="#d3e6f2" stroke="#d3e6f2" fill-opacity="1" stroke-opacity="1"/><path d="M548,-127L288,103L573,61Z" fill="#c4dfee" stroke="#c4dfee" fill-opacity="1" stroke-opacity="1"/><path d="M548,-127L573,61L700,-62Z" fill="#b4d6ea" stroke="#b4d6ea" fill-opacity="1" stroke-opacity="1"/><path d="M548,-127L700,-62L923,-146Z" fill="#a8cde5" stroke="#a8cde5" fill-opacity="1" stroke-opacity="1"/><path d="M700,-62L573,61L788,112Z" fill="#a8d0e7" stroke="#a8d0e7" fill-opacity="1" stroke-opacity="1"/><path d="M700,-62L788,112L923,-146Z" fill="#a0c8e2" stroke="#a0c8e2" fill-opacity="1" stroke-opacity="1"/><path d="M923,-146L788,112L985,66Z" fill="#97c0de" stroke="#97c0de" fill-opacity="1" stroke-opacity="1"/><path d="M923,-146L985,66L1134,-154Z" fill="#8fb5d8" stroke="#8fb5d8" fill-opacity="1" stroke-opacity="1"/><path d="M1134,-154L985,66L1184,133Z" fill="#88acd1" stroke="#88acd1" fill-opacity="1" stroke-opacity="1"/><path d="M1134,-154L1184,133L1225,-125Z" fill="#84a3ca" stroke="#84a3ca" fill-opacity="1" stroke-opacity="1"/><path d="M1225,-125L1184,133L1328,59Z" fill="#7e9cc5" stroke="#7e9cc5" fill-opacity="1" stroke-opacity="1"/><path d="M1225,-125L1328,59L1525,-14Z" fill="#808fbb" stroke="#808fbb" fill-opacity="1" stroke-opacity="1"/><path d="M1525,-14L1328,59L1438,136Z" fill="#7a87b5" stroke="#7a87b5" fill-opacity="1" stroke-opacity="1"/><path d="M1525,-14L1438,136L1556,382Z" fill="#687caf" stroke="#687caf" fill-opacity="1" stroke-opacity="1"/><path d="M1525,-14L1556,382L1584,637Z" fill="#3c65a9" stroke="#3c65a9" fill-opacity="1" stroke-opacity="1"/><path d="M-171,122L-137,877L-86,418Z" fill="#9ecef1" stroke="#9ecef1" fill-opacity="1" stroke-opacity="1"/><path d="M-171,122L-86,418L-16,252Z" fill="#ceefff" stroke="#ceefff" fill-opacity="1" stroke-opacity="1"/><path d="M-171,122L-16,252L132,126Z" fill="#e2f6ff" stroke="#e2f6ff" fill-opacity="1" stroke-opacity="1"/><path d="M132,126L-16,252L97,380Z" fill="#c2e7fc" stroke="#c2e7fc" fill-opacity="1" stroke-opacity="1"/><path d="M132,126L97,380L347,254Z" fill="#b6e0f7" stroke="#b6e0f7" fill-opacity="1" stroke-opacity="1"/><path d="M132,126L347,254L288,103Z" fill="#c7e7f5" stroke="#c7e7f5" fill-opacity="1" stroke-opacity="1"/><path d="M288,103L347,254L573,61Z" fill="#bde2f0" stroke="#bde2f0" fill-opacity="1" stroke-opacity="1"/><path d="M573,61L347,254L564,260Z" fill="#a5d8ed" stroke="#a5d8ed" fill-opacity="1" stroke-opacity="1"/><path d="M573,61L564,260L788,112Z" fill="#9ed1e9" stroke="#9ed1e9" fill-opacity="1" stroke-opacity="1"/><path d="M788,112L564,260L768,296Z" fill="#84c6e6" stroke="#84c6e6" fill-opacity="1" stroke-opacity="1"/><path d="M788,112L768,296L853,347Z" fill="#73bae2" stroke="#73bae2" fill-opacity="1" stroke-opacity="1"/><path d="M788,112L853,347L985,66Z" fill="#80bddf" stroke="#80bddf" fill-opacity="1" stroke-opacity="1"/><path d="M985,66L853,347L1099,288Z" fill="#69aedb" stroke="#69aedb" fill-opacity="1" stroke-opacity="1"/><path d="M985,66L1099,288L1184,133Z" fill="#73a9d2" stroke="#73a9d2" fill-opacity="1" stroke-opacity="1"/><path d="M1184,133L1099,288L1377,381Z" fill="#508ec7" stroke="#508ec7" fill-opacity="1" stroke-opacity="1"/><path d="M1184,133L1377,381L1438,136Z" fill="#5d8abd" stroke="#5d8abd" fill-opacity="1" stroke-opacity="1"/><path d="M1184,133L1438,136L1328,59Z" fill="#7594bf" stroke="#7594bf" fill-opacity="1" stroke-opacity="1"/><path d="M1438,136L1377,381L1556,382Z" fill="#456fb3" stroke="#456fb3" fill-opacity="1" stroke-opacity="1"/><path d="M-16,252L-86,418L11,442Z" fill="#aedbfa" stroke="#aedbfa" fill-opacity="1" stroke-opacity="1"/><path d="M-16,252L11,442L97,380Z" fill="#abd9fb" stroke="#abd9fb" fill-opacity="1" stroke-opacity="1"/><path d="M97,380L11,442L247,454Z" fill="#92c9f0" stroke="#92c9f0" fill-opacity="1" stroke-opacity="1"/><path d="M97,380L247,454L347,254Z" fill="#95cdf2" stroke="#95cdf2" fill-opacity="1" stroke-opacity="1"/><path d="M347,254L247,454L493,426Z" fill="#84c5ec" stroke="#84c5ec" fill-opacity="1" stroke-opacity="1"/><path d="M347,254L493,426L564,260Z" fill="#86c8ee" stroke="#86c8ee" fill-opacity="1" stroke-opacity="1"/><path d="M564,260L493,426L768,296Z" fill="#71bce9" stroke="#71bce9" fill-opacity="1" stroke-opacity="1"/><path d="M768,296L493,426L787,513Z" fill="#56a9df" stroke="#56a9df" fill-opacity="1" stroke-opacity="1"/><path d="M768,296L787,513L853,347Z" fill="#50a5dc" stroke="#50a5dc" fill-opacity="1" stroke-opacity="1"/><path d="M853,347L787,513L860,475Z" fill="#4199d5" stroke="#4199d5" fill-opacity="1" stroke-opacity="1"/><path d="M853,347L860,475L1099,288Z" fill="#489cd7" stroke="#489cd7" fill-opacity="1" stroke-opacity="1"/><path d="M1099,288L860,475L1092,535Z" fill="#348bcd" stroke="#348bcd" fill-opacity="1" stroke-opacity="1"/><path d="M1099,288L1092,535L1293,486Z" fill="#2a7ac1" stroke="#2a7ac1" fill-opacity="1" stroke-opacity="1"/><path d="M1099,288L1293,486L1377,381Z" fill="#3078be" stroke="#3078be" fill-opacity="1" stroke-opacity="1"/><path d="M1377,381L1293,486L1495,483Z" fill="#225ead" stroke="#225ead" fill-opacity="1" stroke-opacity="1"/><path d="M1377,381L1495,483L1556,382Z" fill="#295aa8" stroke="#295aa8" fill-opacity="1" stroke-opacity="1"/><path d="M1556,382L1495,483L1584,637Z" fill="#19499b" stroke="#19499b" fill-opacity="1" stroke-opacity="1"/><path d="M-86,418L-137,877L-36,789Z" fill="#9098cc" stroke="#9098cc" fill-opacity="1" stroke-opacity="1"/><path d="M-86,418L-36,789L11,442Z" fill="#8fbae8" stroke="#8fbae8" fill-opacity="1" stroke-opacity="1"/><path d="M11,442L-36,789L127,769Z" fill="#8598d0" stroke="#8598d0" fill-opacity="1" stroke-opacity="1"/><path d="M11,442L127,769L247,454Z" fill="#7daee2" stroke="#7daee2" fill-opacity="1" stroke-opacity="1"/><path d="M247,454L127,769L282,677Z" fill="#7396cf" stroke="#7396cf" fill-opacity="1" stroke-opacity="1"/><path d="M247,454L282,677L477,666Z" fill="#6799d1" stroke="#6799d1" fill-opacity="1" stroke-opacity="1"/><path d="M247,454L477,666L493,426Z" fill="#64abdd" stroke="#64abdd" fill-opacity="1" stroke-opacity="1"/><path d="M493,426L477,666L787,513Z" fill="#4a99d6" stroke="#4a99d6" fill-opacity="1" stroke-opacity="1"/><path d="M787,513L477,666L694,723Z" fill="#417cc1" stroke="#417cc1" fill-opacity="1" stroke-opacity="1"/><path d="M787,513L694,723L936,790Z" fill="#3066b3" stroke="#3066b3" fill-opacity="1" stroke-opacity="1"/><path d="M787,513L936,790L1033,628Z" fill="#2865b4" stroke="#2865b4" fill-opacity="1" stroke-opacity="1"/><path d="M787,513L1033,628L860,475Z" fill="#2c82c9" stroke="#2c82c9" fill-opacity="1" stroke-opacity="1"/><path d="M860,475L1033,628L1092,535Z" fill="#2377c3" stroke="#2377c3" fill-opacity="1" stroke-opacity="1"/><path d="M1092,535L1033,628L1299,700Z" fill="#1954a8" stroke="#1954a8" fill-opacity="1" stroke-opacity="1"/><path d="M1092,535L1299,700L1293,486Z" fill="#1456aa" stroke="#1456aa" fill-opacity="1" stroke-opacity="1"/><path d="M1293,486L1299,700L1495,483Z" fill="#134ca2" stroke="#134ca2" fill-opacity="1" stroke-opacity="1"/><path d="M1495,483L1299,700L1584,637Z" fill="#123490" stroke="#123490" fill-opacity="1" stroke-opacity="1"/><path d="M-36,789L-137,877L111,960Z" fill="#877baa" stroke="#877baa" fill-opacity="1" stroke-opacity="1"/><path d="M-36,789L111,960L127,769Z" fill="#7e76ae" stroke="#7e76ae" fill-opacity="1" stroke-opacity="1"/><path d="M127,769L111,960L279,983Z" fill="#726f9d" stroke="#726f9d" fill-opacity="1" stroke-opacity="1"/><path d="M127,769L279,983L282,677Z" fill="#6e6cad" stroke="#6e6cad" fill-opacity="1" stroke-opacity="1"/><path d="M282,677L279,983L495,846Z" fill="#6167a4" stroke="#6167a4" fill-opacity="1" stroke-opacity="1"/><path d="M282,677L495,846L477,666Z" fill="#5c75b6" stroke="#5c75b6" fill-opacity="1" stroke-opacity="1"/><path d="M477,666L495,846L694,723Z" fill="#4a67af" stroke="#4a67af" fill-opacity="1" stroke-opacity="1"/><path d="M694,723L495,846L737,848Z" fill="#3f54a1" stroke="#3f54a1" fill-opacity="1" stroke-opacity="1"/><path d="M694,723L737,848L936,790Z" fill="#304c9e" stroke="#304c9e" fill-opacity="1" stroke-opacity="1"/><path d="M936,790L737,848L899,900Z" fill="#294490" stroke="#294490" fill-opacity="1" stroke-opacity="1"/><path d="M936,790L899,900L1118,860Z" fill="#1f398a" stroke="#1f398a" fill-opacity="1" stroke-opacity="1"/><path d="M936,790L1118,860L1033,628Z" fill="#1d3e97" stroke="#1d3e97" fill-opacity="1" stroke-opacity="1"/><path d="M1033,628L1118,860L1299,700Z" fill="#163893" stroke="#163893" fill-opacity="1" stroke-opacity="1"/><path d="M1299,700L1118,860L1264,869Z" fill="#101e7d" stroke="#101e7d" fill-opacity="1" stroke-opacity="1"/><path d="M1299,700L1264,869L1583,949Z" fill="#0e0d6b" stroke="#0e0d6b" fill-opacity="1" stroke-opacity="1"/><path d="M1299,700L1583,949L1584,637Z" fill="#0f0970" stroke="#0f0970" fill-opacity="1" stroke-opacity="1"/><path d="M279,983L1583,949L899,900Z" fill="#223e7b" stroke="#223e7b" fill-opacity="1" stroke-opacity="1"/><path d="M279,983L899,900L737,848Z" fill="#3e548d" stroke="#3e548d" fill-opacity="1" stroke-opacity="1"/><path d="M279,983L737,848L495,846Z" fill="#4e5e95" stroke="#4e5e95" fill-opacity="1" stroke-opacity="1"/><path d="M899,900L1583,949L1264,869Z" fill="#0d1c69" stroke="#0d1c69" fill-opacity="1" stroke-opacity="1"/><path d="M899,900L1264,869L1118,860Z" fill="#172d7c" stroke="#172d7c" fill-opacity="1" stroke-opacity="1"/></g></svg>